  0
SECTION
  2
HEADER
  9
$ACADVER
  1
AC1012
  9
$DWGCODEPAGE
  3
ansi_1252
  9
$INSBASE
 10
0.0
 20
0.0
 30
0.0
  9
$EXTMIN
 10
1.000000000000000E+20
 20
1.000000000000000E+20
 30
1.000000000000000E+20
  9
$EXTMAX
 10
-1.000000000000000E+20
 20
-1.000000000000000E+20
 30
-1.000000000000000E+20
  9
$LIMMIN
 10
0.0
 20
0.0
  9
$LIMMAX
 10
12.0
 20
9.0
  9
$ORTHOMODE
 70
     0
  9
$REGENMODE
 70
     1
  9
$FILLMODE
 70
     1
  9
$QTEXTMODE
 70
     0
  9
$MIRRTEXT
 70
     1
  9
$DRAGMODE
 70
     2
  9
$LTSCALE
 40
1.0
  9
$OSMODE
 70
    37
  9
$ATTMODE
 70
     1
  9
$TEXTSIZE
 40
0.2
  9
$TRACEWID
 40
0.05
  9
$TEXTSTYLE
  7
STANDARD
  9
$CLAYER
  8
0
  9
$CELTYPE
  6
BYLAYER
  9
$CECOLOR
 62
   256
  9
$CELTSCALE
 40
1.0
  9
$DELOBJ
 70
     1
  9
$DISPSILH
 70
     0
  9
$DIMSCALE
 40
1.0
  9
$DIMASZ
 40
0.18
  9
$DIMEXO
 40
0.0625
  9
$DIMDLI
 40
0.38
  9
$DIMRND
 40
0.0
  9
$DIMDLE
 40
0.0
  9
$DIMEXE
 40
0.18
  9
$DIMTP
 40
0.0
  9
$DIMTM
 40
0.0
  9
$DIMTXT
 40
0.18
  9
$DIMCEN
 40
0.09
  9
$DIMTSZ
 40
0.0
  9
$DIMTOL
 70
     0
  9
$DIMLIM
 70
     0
  9
$DIMTIH
 70
     1
  9
$DIMTOH
 70
     1
  9
$DIMSE1
 70
     0
  9
$DIMSE2
 70
     0
  9
$DIMTAD
 70
     0
  9
$DIMZIN
 70
     0
  9
$DIMBLK
  1

  9
$DIMASO
 70
     1
  9
$DIMSHO
 70
     1
  9
$DIMPOST
  1

  9
$DIMAPOST
  1

  9
$DIMALT
 70
     0
  9
$DIMALTD
 70
     2
  9
$DIMALTF
 40
25.4
  9
$DIMLFAC
 40
1.0
  9
$DIMTOFL
 70
     0
  9
$DIMTVP
 40
0.0
  9
$DIMTIX
 70
     0
  9
$DIMSOXD
 70
     0
  9
$DIMSAH
 70
     0
  9
$DIMBLK1
  1

  9
$DIMBLK2
  1

  9
$DIMSTYLE
  2
STANDARD
  9
$DIMCLRD
 70
     0
  9
$DIMCLRE
 70
     0
  9
$DIMCLRT
 70
     0
  9
$DIMTFAC
 40
1.0
  9
$DIMGAP
 40
0.09
  9
$DIMJUST
 70
     0
  9
$DIMSD1
 70
     0
  9
$DIMSD2
 70
     0
  9
$DIMTOLJ
 70
     1
  9
$DIMTZIN
 70
     0
  9
$DIMALTZ
 70
     0
  9
$DIMALTTZ
 70
     0
  9
$DIMFIT
 70
     3
  9
$DIMUPT
 70
     0
  9
$DIMUNIT
 70
     2
  9
$DIMDEC
 70
     4
  9
$DIMTDEC
 70
     4
  9
$DIMALTU
 70
     2
  9
$DIMALTTD
 70
     2
  9
$DIMTXSTY
  7
STANDARD
  9
$DIMAUNIT
 70
     0
  9
$LUNITS
 70
     2
  9
$LUPREC
 70
     4
  9
$SKETCHINC
 40
0.1
  9
$FILLETRAD
 40
0.5
  9
$AUNITS
 70
     0
  9
$AUPREC
 70
     0
  9
$MENU
  1
.
  9
$ELEVATION
 40
0.0
  9
$PELEVATION
 40
0.0
  9
$THICKNESS
 40
0.0
  9
$LIMCHECK
 70
     0
  9
$CHAMFERA
 40
0.5
  9
$CHAMFERB
 40
0.5
  9
$CHAMFERC
 40
1.0
  9
$CHAMFERD
 40
0.0
  9
$SKPOLY
 70
     0
  9
$TDCREATE
 40
2457704.014220035
  9
$TDUPDATE
 40
2457704.01422007
  9
$TDINDWG
 40
0.0000000116
  9
$TDUSRTIMER
 40
0.0000000116
  9
$USRTIMER
 70
     1
  9
$ANGBASE
 50
0.0
  9
$ANGDIR
 70
     0
  9
$PDMODE
 70
     0
  9
$PDSIZE
 40
0.0
  9
$PLINEWID
 40
0.0
  9
$COORDS
 70
     1
  9
$SPLFRAME
 70
     0
  9
$SPLINETYPE
 70
     6
  9
$SPLINESEGS
 70
     8
  9
$ATTDIA
 70
     0
  9
$ATTREQ
 70
     1
  9
$HANDLING
 70
     1
  9
$HANDSEED
  5
82
  9
$SURFTAB1
 70
     6
  9
$SURFTAB2
 70
     6
  9
$SURFTYPE
 70
     6
  9
$SURFU
 70
     6
  9
$SURFV
 70
     6
  9
$UCSNAME
  2

  9
$UCSORG
 10
0.0
 20
0.0
 30
0.0
  9
$UCSXDIR
 10
1.0
 20
0.0
 30
0.0
  9
$UCSYDIR
 10
0.0
 20
1.0
 30
0.0
  9
$PUCSNAME
  2

  9
$PUCSORG
 10
0.0
 20
0.0
 30
0.0
  9
$PUCSXDIR
 10
1.0
 20
0.0
 30
0.0
  9
$PUCSYDIR
 10
0.0
 20
1.0
 30
0.0
  9
$USERI1
 70
     0
  9
$USERI2
 70
     0
  9
$USERI3
 70
     0
  9
$USERI4
 70
     0
  9
$USERI5
 70
     0
  9
$USERR1
 40
0.0
  9
$USERR2
 40
0.0
  9
$USERR3
 40
0.0
  9
$USERR4
 40
0.0
  9
$USERR5
 40
0.0
  9
$WORLDVIEW
 70
     1
  9
$SHADEDGE
 70
     3
  9
$SHADEDIF
 70
    70
  9
$TILEMODE
 70
     1
  9
$MAXACTVP
 70
    64
  9
$PINSBASE
 10
0.0
 20
0.0
 30
0.0
  9
$PLIMCHECK
 70
     0
  9
$PEXTMIN
 10
1.000000000000000E+20
 20
1.000000000000000E+20
 30
1.000000000000000E+20
  9
$PEXTMAX
 10
-1.000000000000000E+20
 20
-1.000000000000000E+20
 30
-1.000000000000000E+20
  9
$PLIMMIN
 10
0.0
 20
0.0
  9
$PLIMMAX
 10
12.0
 20
9.0
  9
$UNITMODE
 70
     0
  9
$VISRETAIN
 70
     1
  9
$PLINEGEN
 70
     0
  9
$PSLTSCALE
 70
     1
  9
$TREEDEPTH
 70
  3020
  9
$PICKSTYLE
 70
     1
  9
$CMLSTYLE
  2
STANDARD
  9
$CMLJUST
 70
     0
  9
$CMLSCALE
 40
1.0
  9
$SAVEIMAGES
 70
     1
  0
ENDSEC
  0
SECTION
  2
CLASSES
  0
CLASS
  1
ACDBDICTIONARYWDFLT
  2
AcDbDictionaryWithDefault
  3
ObjectDBX Classes
 90
    32768
280
     0
281
     0
  0
CLASS
  1
VISUALSTYLE
  2
AcDbVisualStyle
  3
ObjectDBX Classes
 90
     4095
280
     0
281
     0
  0
CLASS
  1
MATERIAL
  2
AcDbMaterial
  3
ObjectDBX Classes
 90
     1153
280
     0
281
     0
  0
CLASS
  1
SUN
  2
AcDbSun
  3
SCENEOE
 90
     1024
280
     0
281
     0
  0
CLASS
  1
DICTIONARYVAR
  2
AcDbDictionaryVar
  3
ObjectDBX Classes
 90
        0
280
     0
281
     0
  0
CLASS
  1
XRECORD
  2
AcDbXrecord
  3
AutoCAD 2000
 90
    32768
280
     0
281
     0
  0
CLASS
  1
LWPOLYLINE
  2
AcDbPolyline
  3
AutoCAD 2000
 90
    32768
280
     0
281
     1
  0
CLASS
  1
HATCH
  2
AcDbHatch
  3
AutoCAD 2000
 90
    32768
280
     0
281
     1
  0
CLASS
  1
ACDBPLACEHOLDER
  2
AcDbPlaceHolder
  3
ObjectDBX Classes
 90
        0
280
     0
281
     0
  0
CLASS
  1
LAYOUT
  2
AcDbLayout
  3
ObjectDBX Classes
 90
        0
280
     0
281
     0
  0
ENDSEC
  0
SECTION
  2
TABLES
  0
TABLE
  2
VPORT
  5
8
330
0
100
AcDbSymbolTable
 70
     1
  0
VPORT
  5
29
330
8
100
AcDbSymbolTableRecord
100
AcDbViewportTableRecord
  2
*ACTIVE
 70
     0
 10
0.0
 20
0.0
 11
1.0
 21
1.0
 12
0.0
 22
0.0
 13
0.0
 23
0.0
 14
0.5
 24
0.5
 15
0.5
 25
0.5
 16
0.0
 26
0.0
 36
1.0
 17
500.0
 27
-500.0
 37
0.0
 40
1000.0
 41
1.0
 42
50.0
 43
0.0
 44
0.0
 50
0.0
 51
0.0
 71
     0
 72
   100
 73
     1
 74
     3
 75
     0
 76
     0
 77
     0
 78
     0
  0
ENDTAB
  0
TABLE
  2
LTYPE
  5
5
330
0
100
AcDbSymbolTable
 70
     1
  0
LTYPE
  5
14
330
5
100
AcDbSymbolTableRecord
100
AcDbLinetypeTableRecord
  2
BYBLOCK
 70
     0
  3

 72
    65
 73
     0
 40
0.0
  0
LTYPE
  5
15
330
5
100
AcDbSymbolTableRecord
100
AcDbLinetypeTableRecord
  2
BYLAYER
 70
     0
  3

 72
    65
 73
     0
 40
0.0
  0
LTYPE
  5
16
330
5
100
AcDbSymbolTableRecord
100
AcDbLinetypeTableRecord
  2
CONTINUOUS
 70
     0
  3
Solid line
 72
    65
 73
     0
 40
0.0
  0
ENDTAB
  0
TABLE
  2
LAYER
  5
2
330
0
100
AcDbSymbolTable
 70
     7
  0
LAYER
  5
10
330
2
100
AcDbSymbolTableRecord
100
AcDbLayerTableRecord
  2
0
 70
     0
 62
     7
  6
CONTINUOUS
  0
LAYER
  5
40
330
2
100
AcDbSymbolTableRecord
100
AcDbLayerTableRecord
  2
BG
 70
     4
 62
     7
  6
CONTINUOUS
  0
LAYER
  5
41
330
2
100
AcDbSymbolTableRecord
100
AcDbLayerTableRecord
  2
LAYER_2
 70
     5
 62
     7
  6
CONTINUOUS
  0
LAYER
  5
42
330
2
100
AcDbSymbolTableRecord
100
AcDbLayerTableRecord
  2
LAYER_2_COPY_3
 70
     1
 62
     7
  6
CONTINUOUS
  0
LAYER
  5
43
330
2
100
AcDbSymbolTableRecord
100
AcDbLayerTableRecord
  2
LAYER_2_COPY
 70
     1
 62
     7
  6
CONTINUOUS
  0
LAYER
  5
44
330
2
100
AcDbSymbolTableRecord
100
AcDbLayerTableRecord
  2
LAYER_2_COPY_2
 70
     0
 62
     7
  6
CONTINUOUS
  0
LAYER
  5
61
330
2
100
AcDbSymbolTableRecord
100
AcDbLayerTableRecord
  2
LAYER_3
 70
     5
 62
     7
  6
CONTINUOUS
  0
ENDTAB
  0
TABLE
  2
STYLE
  5
3
330
0
100
AcDbSymbolTable
 70
     1
  0
STYLE
  5
11
330
3
100
AcDbSymbolTableRecord
100
AcDbTextStyleTableRecord
  2
STANDARD
 70
     0
 40
0.0
 41
1.0
 50
0.0
 71
     0
 42
0.2
  3
txt
  4

  0
ENDTAB
  0
TABLE
  2
VIEW
  5
6
330
0
100
AcDbSymbolTable
 70
     0
  0
ENDTAB
  0
TABLE
  2
UCS
  5
7
330
0
100
AcDbSymbolTable
 70
     0
  0
ENDTAB
  0
TABLE
  2
APPID
  5
9
330
0
100
AcDbSymbolTable
 70
     1
  0
APPID
  5
12
330
9
100
AcDbSymbolTableRecord
100
AcDbRegAppTableRecord
  2
ACAD
 70
     0
  0
ENDTAB
  0
TABLE
  2
DIMSTYLE
  5
A
330
0
100
AcDbSymbolTable
 70
     1
  0
DIMSTYLE
105
27
330
A
100
AcDbSymbolTableRecord
100
AcDbDimStyleTableRecord
  2
STANDARD
 70
     0
  3

  4

  5

  6

  7

 40
1.0
 41
0.18
 42
0.0625
 43
0.38
 44
0.18
 45
0.0
 46
0.0
 47
0.0
 48
0.0
140
0.18
141
0.09
142
0.0
143
25.4
144
1.0
145
0.0
146
1.0
147
0.09
 71
     0
 72
     0
 73
     1
 74
     1
 75
     0
 76
     0
 77
     0
 78
     0
170
     0
171
     2
172
     0
173
     0
174
     0
175
     0
176
     0
177
     0
178
     0
270
     2
271
     4
272
     4
273
     2
274
     2
340
11
275
     0
280
     0
281
     0
282
     0
283
     1
284
     0
285
     0
286
     0
287
     3
288
     0
  0
ENDTAB
  0
TABLE
  2
BLOCK_RECORD
  5
1
330
0
100
AcDbSymbolTable
 70
     2
  0
BLOCK_RECORD
  5
1F
330
1
100
AcDbSymbolTableRecord
100
AcDbBlockTableRecord
  2
*MODEL_SPACE
  0
BLOCK_RECORD
  5
1B
330
1
100
AcDbSymbolTableRecord
100
AcDbBlockTableRecord
  2
*PAPER_SPACE
  0
BLOCK_RECORD
  5
67
330
1
100
AcDbSymbolTableRecord
100
AcDbBlockTableRecord
  2
*U1
  0
ENDTAB
  0
ENDSEC
  0
SECTION
  2
BLOCKS
  0
BLOCK
  5
20
330
1F
100
AcDbEntity
  8
0
100
AcDbBlockBegin
  2
*MODEL_SPACE
 70
     0
 10
0.0
 20
0.0
 30
0.0
  3
*MODEL_SPACE
  1

  0
ENDBLK
  5
21
330
1F
100
AcDbEntity
  8
0
100
AcDbBlockEnd
  0
BLOCK
  5
1C
330
1B
100
AcDbEntity
 67
     1
  8
0
100
AcDbBlockBegin
  2
*PAPER_SPACE
 70
     0
 10
0.0
 20
0.0
 30
0.0
  3
*PAPER_SPACE
  1

  0
ENDBLK
  5
1D
330
1B
100
AcDbEntity
 67
     1
  8
0
100
AcDbBlockEnd
  0
BLOCK
  5
7A
330
67
100
AcDbEntity
  8
0
100
AcDbBlockBegin
  2
*U1
 70
     1
 10
0.0
 20
0.0
 30
0.0
  3
*U1
  1

  0
SOLID
  5
68
330
67
100
AcDbEntity
  8
LAYER_2_COPY_2
 62
     3
100
AcDbTrace
 10
0.0
 20
-642.8571949755751
 30
0.0
 11
0.0
 21
-357.1429266341001
 31
0.0
 12
123.7178996063476
 22
-714.285731658525
 32
0.0
 13
123.7178996063476
 23
-714.285731658525
 33
0.0
  0
SOLID
  5
69
330
67
100
AcDbEntity
  8
LAYER_2_COPY_2
 62
     3
100
AcDbTrace
 10
123.7178996063476
 20
-714.285731658525
 30
0.0
 11
0.0
 21
-357.1429266341001
 31
0.0
 12
123.7178996063476
 22
-285.7142683414759
 32
0.0
 13
123.7178996063476
 23
-285.7142683414759
 33
0.0
  0
SOLID
  5
6A
330
67
100
AcDbEntity
  8
LAYER_2_COPY_2
 62
     3
100
AcDbTrace
 10
123.7178996063476
 20
-857.1428050244249
 30
0.0
 11
123.7178996063476
 21
-142.8571949755751
 31
0.0
 12
247.4357992126988
 22
-928.5714633170501
 32
0.0
 13
247.4357992126988
 23
-928.5714633170501
 33
0.0
  0
SOLID
  5
6B
330
67
100
AcDbEntity
  8
LAYER_2_COPY_2
 62
     3
100
AcDbTrace
 10
247.4357992126988
 20
-928.5714633170501
 30
0.0
 11
123.7178996063476
 21
-142.8571949755751
 31
0.0
 12
247.4357992126988
 22
-71.42853668294993
 32
0.0
 13
247.4357992126988
 23
-71.42853668294993
 33
0.0
  0
SOLID
  5
6C
330
67
100
AcDbEntity
  8
LAYER_2_COPY_2
 62
     3
100
AcDbTrace
 10
247.4357992126988
 20
-928.5714633170501
 30
0.0
 11
247.4357992126988
 21
-71.42853668294993
 31
0.0
 12
371.1536988190473
 22
-1000.0
 32
0.0
 13
371.1536988190473
 23
-1000.0
 33
0.0
  0
SOLID
  5
6D
330
67
100
AcDbEntity
  8
LAYER_2_COPY_2
 62
     3
100
AcDbTrace
 10
371.1536988190473
 20
-1000.0
 30
0.0
 11
247.4357992126988
 21
-71.42853668294993
 31
0.0
 12
371.1536988190473
 22
0.0
 32
0.0
 13
371.1536988190473
 23
0.0
 33
0.0
  0
SOLID
  5
6E
330
67
100
AcDbEntity
  8
LAYER_2_COPY_2
 62
     3
100
AcDbTrace
 10
371.1536988190473
 20
-1000.0
 30
0.0
 11
371.1536988190473
 21
0.0
 31
0.0
 12
494.8715984253986
 22
-928.5714633170501
 32
0.0
 13
494.8715984253986
 23
-928.5714633170501
 33
0.0
  0
SOLID
  5
6F
330
67
100
AcDbEntity
  8
LAYER_2_COPY_2
 62
     3
100
AcDbTrace
 10
494.8715984253986
 20
-928.5714633170501
 30
0.0
 11
371.1536988190473
 21
0.0
 31
0.0
 12
494.8715984253986
 22
-71.42846647166675
 32
0.0
 13
494.8715984253986
 23
-71.42846647166675
 33
0.0
  0
SOLID
  5
70
330
67
100
AcDbEntity
  8
LAYER_2_COPY_2
 62
     3
100
AcDbTrace
 10
494.8715984253986
 20
-928.5714633170501
 30
0.0
 11
494.8715984253986
 21
-71.42846647166675
 31
0.0
 12
494.871720035072
 22
-928.5715335283332
 32
0.0
 13
494.871720035072
 23
-928.5715335283332
 33
0.0
  0
SOLID
  5
71
330
67
100
AcDbEntity
  8
LAYER_2_COPY_2
 62
     3
100
AcDbTrace
 10
494.871720035072
 20
-928.5715335283332
 30
0.0
 11
494.8715984253986
 21
-71.42846647166675
 31
0.0
 12
494.871720035072
 22
-71.42853668294993
 32
0.0
 13
494.871720035072
 23
-71.42853668294993
 33
0.0
  0
SOLID
  5
72
330
67
100
AcDbEntity
  8
LAYER_2_COPY_2
 62
     3
100
AcDbTrace
 10
494.871720035072
 20
-928.5715335283332
 30
0.0
 11
494.871720035072
 21
-71.42853668294993
 31
0.0
 12
618.5896196414215
 22
-1000.0
 32
0.0
 13
618.5896196414215
 23
-1000.0
 33
0.0
  0
SOLID
  5
73
330
67
100
AcDbEntity
  8
LAYER_2_COPY_2
 62
     3
100
AcDbTrace
 10
618.5896196414215
 20
-1000.0
 30
0.0
 11
494.871720035072
 21
-71.42853668294993
 31
0.0
 12
618.5896196414215
 22
0.0
 32
0.0
 13
618.5896196414215
 23
0.0
 33
0.0
  0
SOLID
  5
74
330
67
100
AcDbEntity
  8
LAYER_2_COPY_2
 62
     3
100
AcDbTrace
 10
618.5896196414215
 20
-1000.0
 30
0.0
 11
618.5896196414215
 21
0.0
 31
0.0
 12
742.30751924777
 22
-928.5714633170501
 32
0.0
 13
742.30751924777
 23
-928.5714633170501
 33
0.0
  0
SOLID
  5
75
330
67
100
AcDbEntity
  8
LAYER_2_COPY_2
 62
     3
100
AcDbTrace
 10
742.30751924777
 20
-928.5714633170501
 30
0.0
 11
618.5896196414215
 21
0.0
 31
0.0
 12
742.30751924777
 22
-71.42853668294993
 32
0.0
 13
742.30751924777
 23
-71.42853668294993
 33
0.0
  0
SOLID
  5
76
330
67
100
AcDbEntity
  8
LAYER_2_COPY_2
 62
     3
100
AcDbTrace
 10
742.30751924777
 20
-928.5714633170501
 30
0.0
 11
742.30751924777
 21
-71.42853668294993
 31
0.0
 12
866.0254188541221
 22
-857.1428050244249
 32
0.0
 13
866.0254188541221
 23
-857.1428050244249
 33
0.0
  0
SOLID
  5
77
330
67
100
AcDbEntity
  8
LAYER_2_COPY_2
 62
     3
100
AcDbTrace
 10
866.0254188541221
 20
-857.1428050244249
 30
0.0
 11
742.30751924777
 21
-71.42853668294993
 31
0.0
 12
866.0254188541221
 22
-142.8571949755751
 32
0.0
 13
866.0254188541221
 23
-142.8571949755751
 33
0.0
  0
SOLID
  5
78
330
67
100
AcDbEntity
  8
LAYER_2_COPY_2
 62
     3
100
AcDbTrace
 10
866.0254188541221
 20
-714.285731658525
 30
0.0
 11
866.0254188541221
 21
-285.7142683414759
 31
0.0
 12
989.7433184604706
 22
-642.8571949755751
 32
0.0
 13
989.7433184604706
 23
-642.8571949755751
 33
0.0
  0
SOLID
  5
79
330
67
100
AcDbEntity
  8
LAYER_2_COPY_2
 62
     3
100
AcDbTrace
 10
989.7433184604706
 20
-642.8571949755751
 30
0.0
 11
866.0254188541221
 21
-285.7142683414759
 31
0.0
 12
989.7433184604706
 22
-357.1429266341001
 32
0.0
 13
989.7433184604706
 23
-357.1429266341001
 33
0.0
  0
ENDBLK
  5
7B
330
67
100
AcDbEntity
  8
0
100
AcDbBlockEnd
  0
ENDSEC
  0
SECTION
  2
ENTITIES
  0
POLYLINE
  5
45
330
1F
100
AcDbEntity
  8
LAYER_2_COPY_2
100
AcDb2dPolyline
 66
     1
 10
0.0
 20
0.0
 30
0.0
  0
VERTEX
  5
46
330
45
100
AcDbEntity
  8
LAYER_2_COPY_2
100
AcDbVertex
100
AcDb2dVertex
 10
866.0254188541221
 20
-285.7142683414759
 30
0.0
  0
VERTEX
  5
47
330
45
100
AcDbEntity
  8
LAYER_2_COPY_2
100
AcDbVertex
100
AcDb2dVertex
 10
866.0254188541221
 20
-142.8571949755751
 30
0.0
  0
VERTEX
  5
48
330
45
100
AcDbEntity
  8
LAYER_2_COPY_2
100
AcDbVertex
100
AcDb2dVertex
 10
742.30751924777
 20
-71.42853668294993
 30
0.0
  0
VERTEX
  5
49
330
45
100
AcDbEntity
  8
LAYER_2_COPY_2
100
AcDbVertex
100
AcDb2dVertex
 10
618.5896196414215
 20
0.0
 30
0.0
  0
VERTEX
  5
4A
330
45
100
AcDbEntity
  8
LAYER_2_COPY_2
100
AcDbVertex
100
AcDb2dVertex
 10
494.871720035072
 20
-71.42853668294993
 30
0.0
  0
VERTEX
  5
4B
330
45
100
AcDbEntity
  8
LAYER_2_COPY_2
100
AcDbVertex
100
AcDb2dVertex
 10
371.1536988190473
 20
0.0
 30
0.0
  0
VERTEX
  5
4C
330
45
100
AcDbEntity
  8
LAYER_2_COPY_2
100
AcDbVertex
100
AcDb2dVertex
 10
247.4357992126988
 20
-71.42853668294993
 30
0.0
  0
VERTEX
  5
4D
330
45
100
AcDbEntity
  8
LAYER_2_COPY_2
100
AcDbVertex
100
AcDb2dVertex
 10
123.7178996063476
 20
-142.8571949755751
 30
0.0
  0
VERTEX
  5
4E
330
45
100
AcDbEntity
  8
LAYER_2_COPY_2
100
AcDbVertex
100
AcDb2dVertex
 10
123.7178996063476
 20
-285.7142683414759
 30
0.0
  0
VERTEX
  5
4F
330
45
100
AcDbEntity
  8
LAYER_2_COPY_2
100
AcDbVertex
100
AcDb2dVertex
 10
0.0
 20
-357.1429266341001
 30
0.0
  0
VERTEX
  5
50
330
45
100
AcDbEntity
  8
LAYER_2_COPY_2
100
AcDbVertex
100
AcDb2dVertex
 10
0.0
 20
-500.0000000000009
 30
0.0
  0
VERTEX
  5
51
330
45
100
AcDbEntity
  8
LAYER_2_COPY_2
100
AcDbVertex
100
AcDb2dVertex
 10
0.0
 20
-642.8571949755751
 30
0.0
  0
VERTEX
  5
52
330
45
100
AcDbEntity
  8
LAYER_2_COPY_2
100
AcDbVertex
100
AcDb2dVertex
 10
123.7178996063476
 20
-714.285731658525
 30
0.0
  0
VERTEX
  5
53
330
45
100
AcDbEntity
  8
LAYER_2_COPY_2
100
AcDbVertex
100
AcDb2dVertex
 10
123.7178996063476
 20
-857.1428050244249
 30
0.0
  0
VERTEX
  5
54
330
45
100
AcDbEntity
  8
LAYER_2_COPY_2
100
AcDbVertex
100
AcDb2dVertex
 10
247.4357992126988
 20
-928.5714633170501
 30
0.0
  0
VERTEX
  5
55
330
45
100
AcDbEntity
  8
LAYER_2_COPY_2
100
AcDbVertex
100
AcDb2dVertex
 10
371.1536988190473
 20
-1000.0
 30
0.0
  0
VERTEX
  5
56
330
45
100
AcDbEntity
  8
LAYER_2_COPY_2
100
AcDbVertex
100
AcDb2dVertex
 10
494.8715984253986
 20
-928.5714633170501
 30
0.0
  0
VERTEX
  5
57
330
45
100
AcDbEntity
  8
LAYER_2_COPY_2
100
AcDbVertex
100
AcDb2dVertex
 10
618.5896196414215
 20
-1000.0
 30
0.0
  0
VERTEX
  5
58
330
45
100
AcDbEntity
  8
LAYER_2_COPY_2
100
AcDbVertex
100
AcDb2dVertex
 10
742.30751924777
 20
-928.5714633170501
 30
0.0
  0
VERTEX
  5
59
330
45
100
AcDbEntity
  8
LAYER_2_COPY_2
100
AcDbVertex
100
AcDb2dVertex
 10
866.0254188541221
 20
-857.1428050244249
 30
0.0
  0
VERTEX
  5
5A
330
45
100
AcDbEntity
  8
LAYER_2_COPY_2
100
AcDbVertex
100
AcDb2dVertex
 10
866.0254188541221
 20
-714.285731658525
 30
0.0
  0
VERTEX
  5
5B
330
45
100
AcDbEntity
  8
LAYER_2_COPY_2
100
AcDbVertex
100
AcDb2dVertex
 10
989.7433184604706
 20
-642.8571949755751
 30
0.0
  0
VERTEX
  5
5C
330
45
100
AcDbEntity
  8
LAYER_2_COPY_2
100
AcDbVertex
100
AcDb2dVertex
 10
989.7433184604706
 20
-500.0000000000009
 30
0.0
  0
VERTEX
  5
5D
330
45
100
AcDbEntity
  8
LAYER_2_COPY_2
100
AcDbVertex
100
AcDb2dVertex
 10
989.7433184604706
 20
-357.1429266341001
 30
0.0
  0
VERTEX
  5
5E
330
45
100
AcDbEntity
  8
LAYER_2_COPY_2
100
AcDbVertex
100
AcDb2dVertex
 10
866.0254188541221
 20
-285.7142683414759
 30
0.0
  0
SEQEND
  5
60
330
45
100
AcDbEntity
  8
LAYER_2_COPY_2
  0
INSERT
  5
5F
330
1F
100
AcDbEntity
  8
LAYER_2_COPY_2
 62
     3
100
AcDbBlockReference
  2
*U1
 10
0.0
 20
0.0
 30
0.0
1001
ACAD
1002
{
1000
R14_HATCH_DATA
1000
5F
1011
1.0
1021
0.0
1031
0.0
1011
0.0
1021
1.0
1031
0.0
1011
0.0
1021
0.0
1031
1.0
1040
0.0
1010
0.0
1020
0.0
1030
1.0
1000
SOLID
1070
     1
1070
     1
1071
        1
1071
        1
1071
       24
1070
     1
1040
866.0254188541221
1040
-285.7142683414759
1040
866.0254188541221
1040
-142.8571949755751
1070
     1
1040
866.0254188541221
1040
-142.8571949755751
1040
742.30751924777
1040
-71.42853668294993
1070
     1
1040
742.30751924777
1040
-71.42853668294993
1040
618.5896196414215
1040
0.0
1070
     1
1040
618.5896196414215
1040
0.0
1040
494.871720035072
1040
-71.42853668294993
1070
     1
1040
494.871720035072
1040
-71.42853668294993
1040
371.1536988190473
1040
0.0
1070
     1
1040
371.1536988190473
1040
0.0
1040
247.4357992126988
1040
-71.42853668294993
1070
     1
1040
247.4357992126988
1040
-71.42853668294993
1040
123.7178996063476
1040
-142.8571949755751
1070
     1
1040
123.7178996063476
1040
-142.8571949755751
1040
123.7178996063476
1040
-285.7142683414759
1070
     1
1040
123.7178996063476
1040
-285.7142683414759
1040
0.0
1040
-357.1429266341001
1070
     1
1040
0.0
1040
-357.1429266341001
1040
0.0
1040
-500.0000000000009
1070
     1
1040
0.0
1040
-500.0000000000009
1040
0.0
1040
-642.8571949755751
1070
     1
1040
0.0
1040
-642.8571949755751
1040
123.7178996063476
1040
-714.285731658525
1070
     1
1040
123.7178996063476
1040
-714.285731658525
1040
123.7178996063476
1040
-857.1428050244249
1070
     1
1040
123.7178996063476
1040
-857.1428050244249
1040
247.4357992126988
1040
-928.5714633170501
1070
     1
1040
247.4357992126988
1040
-928.5714633170501
1040
371.1536988190473
1040
-1000.0
1070
     1
1040
371.1536988190473
1040
-1000.0
1040
494.8715984253986
1040
-928.5714633170501
1070
     1
1040
494.8715984253986
1040
-928.5714633170501
1040
618.5896196414215
1040
-1000.0
1070
     1
1040
618.5896196414215
1040
-1000.0
1040
742.30751924777
1040
-928.5714633170501
1070
     1
1040
742.30751924777
1040
-928.5714633170501
1040
866.0254188541221
1040
-857.1428050244249
1070
     1
1040
866.0254188541221
1040
-857.1428050244249
1040
866.0254188541221
1040
-714.285731658525
1070
     1
1040
866.0254188541221
1040
-714.285731658525
1040
989.7433184604706
1040
-642.8571949755751
1070
     1
1040
989.7433184604706
1040
-642.8571949755751
1040
989.7433184604706
1040
-500.0000000000009
1070
     1
1040
989.7433184604706
1040
-500.0000000000009
1040
989.7433184604706
1040
-357.1429266341001
1070
     1
1040
989.7433184604706
1040
-357.1429266341001
1040
866.0254188541221
1040
-285.7142683414759
1071
        0
1070
     2
1070
     1
1071
        0
1002
}
  0
ENDSEC
  0
SECTION
  2
OBJECTS
  0
DICTIONARY
  5
C
330
0
100
AcDbDictionary
  3
ACAD_GROUP
350
D
  3
ACAD_LAYOUT
350
1A
  3
ACAD_MATERIAL
350
3B
  3
ACAD_MLEADERSTYLE
350
64
  3
ACAD_MLINESTYLE
350
17
  3
ACAD_PLOTSETTINGS
350
19
  3
ACAD_VISUALSTYLE
350
2A
  3
ACDBVARIABLEDICTIONARY
350
62
1001
ACAD
1000
TREAT_AS_HARD
1070
     0
  0
DICTIONARY
  5
D
102
{ACAD_REACTORS
330
C
102
}
330
C
100
AcDbDictionary
1001
ACAD
1000
TREAT_AS_HARD
1070
     0
  0
DICTIONARY
  5
1A
102
{ACAD_REACTORS
330
C
102
}
330
C
100
AcDbDictionary
1001
ACAD
1000
TREAT_AS_HARD
1070
     0
  0
DICTIONARY
  5
3B
102
{ACAD_REACTORS
330
C
102
}
330
C
100
AcDbDictionary
  3
BYBLOCK
350
3D
  3
BYLAYER
350
3C
  3
GLOBAL
350
3E
1001
ACAD
1000
TREAT_AS_HARD
1070
     0
  0
DICTIONARY
  5
64
102
{ACAD_REACTORS
330
C
102
}
330
C
100
AcDbDictionary
1001
ACAD
1000
TREAT_AS_HARD
1070
     0
  0
DICTIONARY
  5
17
102
{ACAD_REACTORS
330
C
102
}
330
C
100
AcDbDictionary
  3
STANDARD
350
18
1001
ACAD
1000
TREAT_AS_HARD
1070
     0
  0
DICTIONARY
  5
19
102
{ACAD_REACTORS
330
C
102
}
330
C
100
AcDbDictionary
1001
ACAD
1000
TREAT_AS_HARD
1070
     0
  0
DICTIONARY
  5
2A
102
{ACAD_REACTORS
330
C
102
}
330
C
100
AcDbDictionary
  3
2DWIREFRAME
350
2F
  3
3D_HIDDEN
350
31
  3
3DWIREFRAME
350
30
  3
BASIC
350
32
  3
BRIGHTEN
350
36
  3
COLORCHANGE
350
3A
  3
CONCEPTUAL
350
34
  3
DIM
350
35
  3
FACEPATTERN
350
39
  3
FLAT
350
2B
  3
FLATWITHEDGES
350
2C
  3
GOURAUD
350
2D
  3
GOURAUDWITHEDGES
350
2E
  3
LINEPATTERN
350
38
  3
REALISTIC
350
33
  3
THICKEN
350
37
1001
ACAD
1000
TREAT_AS_HARD
1070
     0
  0
DICTIONARY
  5
62
102
{ACAD_REACTORS
330
C
102
}
330
C
100
AcDbDictionary
  3
DIMASSOC
350
65
  3
HIDETEXT
350
66
1001
ACAD
1000
TREAT_AS_HARD
1070
     0
  0
MATERIAL
  5
3D
102
{ACAD_REACTORS
330
3B
102
}
102
{ACAD_XDICTIONARY
360
7E
102
}
330
3B
100
AcDbMaterial
  1
ByBlock
  0
MATERIAL
  5
3C
102
{ACAD_REACTORS
330
3B
102
}
102
{ACAD_XDICTIONARY
360
7C
102
}
330
3B
100
AcDbMaterial
  1
ByLayer
  0
MATERIAL
  5
3E
102
{ACAD_REACTORS
330
3B
102
}
102
{ACAD_XDICTIONARY
360
80
102
}
330
3B
100
AcDbMaterial
  1
Global
  0
MLINESTYLE
  5
18
102
{ACAD_REACTORS
330
17
102
}
330
17
100
AcDbMlineStyle
  2
Standard
 70
     0
  3

 62
   256
 51
90.0
 52
90.0
 71
     2
 49
0.5
 62
   256
  6
BYLAYER
 49
-0.5
 62
   256
  6
BYLAYER
  0
ACAD_PROXY_OBJECT
  5
2F
102
{ACAD_REACTORS
330
2A
102
}
330
2A
100
AcDbZombieObject
 90
      499
 91
      501
 93
      436
310
42CC9915DA5C99599C985B595049028333333333333E3BF0000000000000FB0107901411070040501600405405064090741402480A0340
1001
ACAD
1000
AcDbSavedByObjectVersion
1070
     0
  0
ACAD_PROXY_OBJECT
  5
31
102
{ACAD_REACTORS
330
2A
102
}
330
2A
100
AcDbZombieObject
 90
      499
 91
      501
 93
      500
310
424CD108121A5919195B90640502408333333333333E3BF0000000000000FB01079024090700405020000000000001110200405405064090740C02480A0340
1001
ACAD
1000
AcDbSavedByObjectVersion
1070
     0
  0
ACAD_PROXY_OBJECT
  5
30
102
{ACAD_REACTORS
330
2A
102
}
330
2A
100
AcDbZombieObject
 90
      499
 91
      501
 93
      436
310
42CCD915DA5C99599C985B595059028333333333333E3BF0000000000000FB0107901411070040501600405405064090741402480A0340
1001
ACAD
1000
AcDbSavedByObjectVersion
1070
     0
  0
ACAD_PROXY_OBJECT
  5
32
102
{ACAD_REACTORS
330
2A
102
}
330
2A
100
AcDbZombieObject
 90
      499
 91
      501
 93
      388
310
4150985CDA58D07406404333333333333E3BF0000000000000FB0107A41107004050150841D405064090741402480A0350
1001
ACAD
1000
AcDbSavedByObjectVersion
1070
     0
  0
ACAD_PROXY_OBJECT
  5
36
102
{ACAD_REACTORS
330
2A
102
}
330
2A
100
AcDbZombieObject
 90
      499
 91
      501
 93
      428
310
42109C9A59DA1D195B90C409028333333333333E3BF0000000000000FB010790141107004050150841D405064090741402480A029950
1001
ACAD
1000
AcDbSavedByObjectVersion
1070
     0
  0
ACAD_PROXY_OBJECT
  5
3A
102
{ACAD_REACTORS
330
2A
102
}
330
2A
100
AcDbZombieObject
 90
      499
 91
      501
 93
      452
310
42D0DBDB1BDC90DA185B99D95104090240C333333333333E3BF0000000000000FB0108901411070040501508421405064090741402480A0350
1001
ACAD
1000
AcDbSavedByObjectVersion
1070
     0
  0
ACAD_PROXY_OBJECT
  5
34
102
{ACAD_REACTORS
330
2A
102
}
330
2A
100
AcDbZombieObject
 90
      499
 91
      501
 93
      500
310
4290DBDB98D95C1D1D585B10940D028333333333333E3BF0000000000000FB0107902409070040501000000000000111010841D405064090740C02480A0340
1001
ACAD
1000
AcDbSavedByObjectVersion
1070
     0
  0
ACAD_PROXY_OBJECT
  5
35
102
{ACAD_REACTORS
330
2A
102
}
330
2A
100
AcDbZombieObject
 90
      499
 91
      501
 93
      412
310
40D11A5B50B409028333333333333E3BF0000000000000FB010790141107004050150841D405064090741402480A02677FFFFFD0
1001
ACAD
1000
AcDbSavedByObjectVersion
1070
     0
  0
ACAD_PROXY_OBJECT
  5
39
102
{ACAD_REACTORS
330
2A
102
}
330
2A
100
AcDbZombieObject
 90
      499
 91
      501
 93
      444
310
42D19858D95C185D1D195C9B90F409028333333333333E3BF0000000000000FB010790141107004050150841D405064090741402480A0350
1001
ACAD
1000
AcDbSavedByObjectVersion
1070
     0
  0
ACAD_PROXY_OBJECT
  5
2B
102
{ACAD_REACTORS
330
2A
102
}
330
2A
100
AcDbZombieObject
 90
      499
 91
      501
 93
      388
310
41119B185D240901404333333333333E3BF0000000000000F9010740A41107004050150841D405064090741402480A1B50
1001
ACAD
1000
AcDbSavedByObjectVersion
1070
     0
  0
ACAD_PROXY_OBJECT
  5
2C
102
{ACAD_REACTORS
330
2A
102
}
330
2A
100
AcDbZombieObject
 90
      499
 91
      501
 93
      476
310
43519B185D15DA5D1A115919D95CD0140901404333333333333E3BF0000000000000F9010740901411070040501600405405064090741402480A1B50
1001
ACAD
1000
AcDbSavedByObjectVersion
1070
     0
  0
ACAD_PROXY_OBJECT
  5
2D
102
{ACAD_REACTORS
330
2A
102
}
330
2A
100
AcDbZombieObject
 90
      499
 91
      501
 93
      412
310
41D1DBDD5C985D5910240902404333333333333E3BF0000000000000F9010740A411070040501641D405064090741402480A1B50
1001
ACAD
1000
AcDbSavedByObjectVersion
1070
     0
  0
ACAD_PROXY_OBJECT
  5
2E
102
{ACAD_REACTORS
330
2A
102
}
330
2A
100
AcDbZombieObject
 90
      499
 91
      501
 93
      500
310
4411DBDD5C985D5915DA5D1A115919D95CD0340902404333333333333E3BF0000000000000F9010740901411070040501600405405064090741402480A1B50
1001
ACAD
1000
AcDbSavedByObjectVersion
1070
     0
  0
ACAD_PROXY_OBJECT
  5
38
102
{ACAD_REACTORS
330
2A
102
}
330
2A
100
AcDbZombieObject
 90
      499
 91
      501
 93
      444
310
42D31A5B995C185D1D195C9B90E409028333333333333E3BF0000000000000FB010790141107004050750841D405064090741402483A0350
1001
ACAD
1000
AcDbSavedByObjectVersion
1070
     0
  0
ACAD_PROXY_OBJECT
  5
33
102
{ACAD_REACTORS
330
2A
102
}
330
2A
100
AcDbZombieObject
 90
      499
 91
      501
 93
      420
310
425499585B1A5CDD1A58D08409028333333333333E3BF0000000000000FB01079019070040501508421405064090741402480A1B40
1001
ACAD
1000
AcDbSavedByObjectVersion
1070
     0
  0
ACAD_PROXY_OBJECT
  5
37
102
{ACAD_REACTORS
330
2A
102
}
330
2A
100
AcDbZombieObject
 90
      499
 91
      501
 93
      412
310
41D51A1A58DAD95B90D409028333333333333E3BF0000000000000FB010790141107004050150C41D405064090741402480A0350
1001
ACAD
1000
AcDbSavedByObjectVersion
1070
     0
  0
DICTIONARYVAR
  5
65
102
{ACAD_REACTORS
330
62
102
}
330
62
100
DictionaryVariables
280
     0
  1
2
  0
DICTIONARYVAR
  5
66
102
{ACAD_REACTORS
330
62
102
}
330
62
100
DictionaryVariables
280
     0
  1
1
  0
DICTIONARY
  5
7E
330
3D
100
AcDbDictionary
  3
ACAD_XREC_ROUNDTRIP
360
7F
1001
ACAD
1000
TREAT_AS_HARD
1070
     1
  0
DICTIONARY
  5
7C
330
3C
100
AcDbDictionary
  3
ACAD_XREC_ROUNDTRIP
360
7D
1001
ACAD
1000
TREAT_AS_HARD
1070
     1
  0
DICTIONARY
  5
80
330
3E
100
AcDbDictionary
  3
ACAD_XREC_ROUNDTRIP
360
81
1001
ACAD
1000
TREAT_AS_HARD
1070
     1
  0
XRECORD
  5
7F
102
{ACAD_REACTORS
330
7E
102
}
330
7E
100
AcDbXrecord
102
MATERIAL
148
0.0
149
0.0
149
0.0
 93
        0
 94
      127
282
     0
 72
     1
 77
     1
171
     1
175
     1
179
     1
273
     0
  0
XRECORD
  5
7D
102
{ACAD_REACTORS
330
7C
102
}
330
7C
100
AcDbXrecord
102
MATERIAL
148
0.0
149
0.0
149
0.0
 93
        0
 94
      127
282
     0
 72
     1
 77
     1
171
     1
175
     1
179
     1
273
     0
  0
XRECORD
  5
81
102
{ACAD_REACTORS
330
80
102
}
330
80
100
AcDbXrecord
102
MATERIAL
148
0.0
149
0.0
149
0.0
 93
        0
 94
      127
282
     0
 72
     1
 77
     1
171
     1
175
     1
179
     1
273
     0
  0
ENDSEC
  0
EOF
